# xmcd
#
# Track frame offsets: 
#        150
#        11477
#        23190
#        35427
#        48150
#        59389
#        73892
#        86375
#        98030
#        109132
#        122040
#        133552
#        146002
#        157512
#        168757
#        180752
#        194465
#        206627
#        219067
#        230915
#        244577
#        257765
#        272362
#
# Disc length: 3771 seconds
#
# Revision: 3
# Processed by: cddbd v1.5.2PL0 Copyright (c) Steve Scherf et al.
# Submitted via: ExactAudioCopyFreeDBPlugin 1.0
#
DISCID=2e0eb917
DTITLE=Sam Cooke - Keep Movin' On
DYEAR=2001
DGENRE=Soul
TTITLE0=Good News
TTITLE1=Rome (Wasn't Built in a Day)
TTITLE2=Meet Me at Mary's Place
TTITLE3=Basin Street Blues
TTITLE4=Cousin of Mine
TTITLE5=Tennessee Waltz
TTITLE6=Falling in Love
TTITLE7=When a Boy Falls in Love
TTITLE8=Good Times
TTITLE9=Shake
TTITLE10=Yeah Man
TTITLE11=It's Got the Whole World Shaking
TTITLE12=The Riddle Song
TTITLE13=I'm Just a Country Boy
TTITLE14=Try a Little Love
TTITLE15=There'll Be No Second Time
TTITLE16=Another Saturday Night
TTITLE17=Sugar Dumpling
TTITLE18=That's Where It's At
TTITLE19=You're Nobody 'til Somebody Loves You
TTITLE20=(Somebody) Ease My Troublin' Mind
TTITLE21=A Change is Gonna Come
TTITLE22=Keep Movin' On
EXTD=
EXTT0=
EXTT1=
EXTT2=
EXTT3=
EXTT4=
EXTT5=
EXTT6=
EXTT7=
EXTT8=
EXTT9=
EXTT10=
EXTT11=
EXTT12=
EXTT13=
EXTT14=
EXTT15=
EXTT16=
EXTT17=
EXTT18=
EXTT19=
EXTT20=
EXTT21=
EXTT22=
PLAYORDER=
